# xmcd
#
# Track frame offsets:
# 150
# 13087
# 24515
# 40812
# 53602
# 64805
# 79852
# 92490
# 102279
# 114850
# 128679
# 141812
# 156317
# 172195
# 185892
#
# Disc length: 2705 seconds
#
#
# Revision: 0
# Processed by: cddbd v1.5.1PL2 Copyright (c) Steve Scherf et al.
# Submitted via: FreeRIP 2.945 
#
DISCID=c40a8f0f
DTITLE=Duo Glacial - Super Sertão Globo
DYEAR=1900
DGENRE=Sertanejo
TTITLE0=Camisa Branca
TTITLE1=Guerra de trinta segundos
TTITLE2=O último dos carreiros
TTITLE3=Coração não chora
TTITLE4=Inquilino do peito
TTITLE5=Miguel e Lolita
TTITLE6=Carne e osso
TTITLE7=Amor ao amanhecer
TTITLE8=Metade de mim
TTITLE9=Piolho de galinha
TTITLE10=Quem vai me querer
TTITLE11=Porta encostada
TTITLE12=Império boiadeiro
TTITLE13=Fim de primavera
TTITLE14=O estudante e o lixeiro
EXTD=
EXTT0=
EXTT1=
EXTT2=
EXTT3=
EXTT4=
EXTT5=
EXTT6=
EXTT7=
EXTT8=
EXTT9=
EXTT10=
EXTT11=
EXTT12=
EXTT13=
EXTT14=
PLAYORDER=
